{"title":"Ironman 3(2013)MP-4[DaScubaDude]","uid":12350606,"size":1593349013,"categoryP":"video","categoryS":"movies","magnet":"?xt=urn:btih:b9602ee9f400716923abb7519e0b71ced327a259&amp;dn=Ironman+3%282013%29MP-4%5BDaScubaDude%5D&amp;tr=udp%3A%2F%2Ftracker.openbittorrent.com%3A80&amp;tr=udp%3A%2F%2Fopen.demonii.com%3A1337&amp;tr=udp%3A%2F%2Ftracker.coppersurfer.tk%3A6969&amp;tr=udp%3A%2F%2Fexodus.desync.com%3A6969","seeders":0,"leechers":0,"uploader":"dascuba","files":1,"time":1441415222,"description":"\nContact the Filmmakers on IMDbPro Â»\nTop 5000\nIron Man 3 (2013)\nPG-13  |  130 min  |  Action, Adventure, Sci-Fi  |  3 May 2013 (USA)\n7.3 Your rating:   -/10   Ratings: 7.3/10 from 493,134 users   Metascore: 62/100 \nReviews: 1,167 user | 598 critic | 44 from Metacritic.com\nWhen Tony Stark's world is torn apart by a formidable terrorist called the Mandarin, he starts an odyssey of rebuilding and retribution.\n\nDirector: Shane Black\nWriters: Drew Pearce (screenplay), Shane Black (screenplay), 6 more credits Â»\nStars: Robert Downey Jr., Guy Pearce, Gwyneth Paltrow\n\nGeneral\nComplete name                            : C:Ironman3IRON_MAN_3_Title46.mp4\nFormat                                   : MPEG-4\nFormat profile                           : Base Media\nCodec ID                                 : isom\nFile size                                : 1.48 GiB\nDuration                                 : 2h 10mn\nOverall bit rate mode                    : Constant\nOverall bit rate                         : 1 629 Kbps\nMovie name                               : IRON_MAN_3\nGenre                                    : Action\nWriting application                      : Lavf54.6.100\n\nVideo\nID                                       : 1\nFormat                                   : MPEG-4 Visual\nFormat settings, BVOP                    : No\nFormat settings, QPel                    : No\nFormat settings, GMC                     : No warppoints\nFormat settings, Matrix                  : Default (H.263)\nCodec ID                                 : 20\nDuration                                 : 2h 10mn\nBit rate mode                            : Constant\nBit rate                                 : 1 495 Kbps\nWidth                                    : 720 pixels\nHeight                                   : 404 pixels\nDisplay aspect ratio                     : 16:9\nFrame rate mode                          : Constant\nFrame rate                               : 29.970 fps\nColor space                              : YUV\nChroma subsampling                       : 4:2:0\nBit depth                                : 8 bits\nScan type                                : Progressive\nCompression mode                         : Lossy\nBits/(Pixel*Frame)                       : 0.171\nStream size                              : 1.36 GiB (92%)\nWriting library                          : Lavc54.23.100\n\nAudio\nID                                       : 2\nFormat                                   : MPEG Audio\nFormat version                           : Version 1\nFormat profile                           : Layer 3\nCodec ID                                 : 6B\nDuration                                 : 2h 10mn\nBit rate mode                            : Constant\nBit rate                                 : 128 Kbps\nChannel(s)                               : 2 channels\nSampling rate                            : 44.1 KHz\nCompression mode                         : Lossy\nStream size                              : 119 MiB (8%)\nWriting library                          : LAME3.99.5","torrent":{"xt":"urn:btih:b9602ee9f400716923abb7519e0b71ced327a259","amp;dn":"Ironman+3%282013%29MP-4%5BDaScubaDude%5D","amp;tr":["udp%3A%2F%2Ftracker.openbittorrent.com%3A80","udp%3A%2F%2Fopen.demonii.com%3A1337","udp%3A%2F%2Ftracker.coppersurfer.tk%3A6969","udp%3A%2F%2Fexodus.desync.com%3A6969"],"infoHash":"b9602ee9f400716923abb7519e0b71ced327a259","infoHashBuffer":{"type":"Buffer","data":[185,96,46,233,244,0,113,105,35,171,183,81,158,11,113,206,211,39,162,89]},"announce":[],"urlList":[]}}